<?xml version="1.0" encoding="utf-8"?><!-- Uploaded to: SVG Repo, www.svgrepo.com, Generator: SVG Repo Mixer Tools -->
<svg fill="#000000" width="800px" height="800px" viewBox="0 0 24 24" id="car-alert-left" data-name="Flat Line" xmlns="http://www.w3.org/2000/svg" class="icon flat-line"><path id="secondary" d="M3.76,12.81l3.93-1a1,1,0,0,0,.65-.52L9.72,8.55a1,1,0,0,1,.9-.55h5.76a1,1,0,0,1,.9.55L19,12l1.45.72a1,1,0,0,1,.55.9V17a1,1,0,0,1-1,1H19a2,2,0,0,0-4,0H9a2,2,0,0,0-4,0H4a1,1,0,0,1-1-1V13.78A1,1,0,0,1,3.76,12.81Z" style="fill: rgb(44, 169, 188); stroke-width: 2;"></path><line id="primary-upstroke" x1="10.05" y1="11.5" x2="9.95" y2="11.5" style="fill: none; stroke: rgb(0, 0, 0); stroke-linecap: round; stroke-linejoin: round; stroke-width: 2.5;"></line><path id="primary" d="M5,18H4a1,1,0,0,1-1-1V13.78a1,1,0,0,1,.76-1L5,12.5" style="fill: none; stroke: rgb(0, 0, 0); stroke-linecap: round; stroke-linejoin: round; stroke-width: 2;"></path><path id="primary-2" data-name="primary" d="M14,8h2.38a1,1,0,0,1,.9.55L19,12l1.45.72a1,1,0,0,1,.55.9V17a1,1,0,0,1-1,1H19" style="fill: none; stroke: rgb(0, 0, 0); stroke-linecap: round; stroke-linejoin: round; stroke-width: 2;"></path><path id="primary-3" data-name="primary" d="M9,18h6m0,0a2,2,0,1,1,2,2A2,2,0,0,1,15,18ZM5,18a2,2,0,1,1,2,2A2,2,0,0,1,5,18ZM10,7V4" style="fill: none; stroke: rgb(0, 0, 0); stroke-linecap: round; stroke-linejoin: round; stroke-width: 2;"></path></svg>